# xmcd CD database file
#
# Track frame offsets:
#	150
#	13984
#	29682
#	45050
#	58724
#	71646
#	88258
#	97563
#	110169
#	122074
#
# Disc length: 1801 seconds
#
# Revision: 0
# Processed by: cddbd v1.5.2PL0 Copyright (c) Steve Scherf et al.
# Submitted via: CDex 1.51
#
DISCID=8207070a
DTITLE=Blaze Foley - Blaze Foley
DYEAR=1984
DGENRE=Country
TTITLE0=Girl Scout Cookies
TTITLE1=Darlin'
TTITLE2=The Way You Smile
TTITLE3=Oval Room
TTITLE4=Rainbows And Ridges
TTITLE5=Picture Cards
TTITLE6=Getting Over You
TTITLE7=Where Are You Now My Love
TTITLE8=My Reasons Why
TTITLE9=Lovin' You
EXTD=YEAR: 1984
EXTT0=
EXTT1=
EXTT2=
EXTT3=
EXTT4=
EXTT5=
EXTT6=
EXTT7=
EXTT8=
EXTT9=
PLAYORDER=
